<?xml version="1.0" encoding="utf-8"?>
<!-- Generator: Adobe Illustrator 25.2.1, SVG Export Plug-In . SVG Version: 6.00 Build 0)  -->
<svg version="1.1" id="Layer_1" xmlns="http://www.w3.org/2000/svg" xmlns:xlink="http://www.w3.org/1999/xlink" x="0px" y="0px"
	 viewBox="0 0 792 612" style="enable-background:new 0 0 792 612;" xml:space="preserve">
<style type="text/css">
	.st0{fill:#FFFFFF;}
	.st1{fill:#425998;}
	.st2{fill:#5DCEBB;}
	.st3{fill:#1B496E;}
</style>
<g>
	<path class="st0" d="M396,383.6c42.9,0,77.6-34.7,77.6-77.6s-34.7-77.6-77.6-77.6s-77.6,34.7-77.6,77.6S353.1,383.6,396,383.6"/>
	<g>
		<path class="st1" d="M382.2,295.6c0-4.8,0-8.7,0-8.8c0-10.3-8.4-18.7-18.7-18.7c-10.3,0-18.7,8.4-18.7,18.7
			c0,0.5,0.1,29.6,0.1,29.6h21.7c0-8.7,0.1-20.8,0.1-20.8H382.2z"/>
		<path class="st1" d="M425.4,295.6c0-4.8,0-8.7,0-8.8c0-10.3-8.4-18.7-18.7-18.7c-10.3,0-18.7,8.4-18.7,18.7c0,0.2,0,4,0,8.8h15.9
			c0,0,0,12,0.1,20.8h5.8c0-8.7,0.1-20.8,0.1-20.8H425.4z"/>
		<path class="st2" d="M447.1,295.6h-21.7c0,8.7-0.1,20.8-0.1,20.8h-15.6c0,4.8,0,8.7,0,8.8c0,10.3,8.4,18.7,18.7,18.7
			c10.3,0,18.7-8.4,18.7-18.7C447.2,324.7,447.1,295.6,447.1,295.6z"/>
		<path class="st2" d="M388,295.6h-5.8c0,8.7-0.1,20.8-0.1,20.8h-15.6c0,4.8,0,8.7,0,8.8c0,10.3,8.4,18.7,18.7,18.7
			c10.3,0,18.7-8.4,18.7-18.7c0-0.2,0-4,0-8.8h-15.9C388.1,316.4,388,304.3,388,295.6z"/>
		<path class="st3" d="M425.4,295.6h-15.6c0,0,0,12-0.1,20.8h15.6C425.3,316.4,425.4,304.3,425.4,295.6z"/>
		<path class="st3" d="M382.2,295.6h-15.6c0,0,0,12-0.1,20.8h15.6C382.2,316.4,382.2,304.3,382.2,295.6z"/>
		<path class="st3" d="M388,295.6c0,8.7,0.1,20.8,0.1,20.8H404c0-8.7-0.1-20.8-0.1-20.8H388z"/>
	</g>
</g>
</svg>
